<svg preserveAspectRatio="none" width="100%" height="100%" overflow="visible" style="display: block;" viewBox="0 0 436 220" fill="none" xmlns="http://www.w3.org/2000/svg">
<g id="logo">
<rect id="Rectangle 13" x="112.354" y="2.29329e-05" width="10.1607" height="78.1592" rx="5.08035" fill="url(#paint0_linear_0_24)"/>
<rect id="Rectangle 14" x="54.3889" y="18.1495" width="9.7699" height="78.1592" rx="4.88495" transform="rotate(-30 54.3889 18.1495)" fill="url(#paint1_linear_0_24)"/>
<rect id="Rectangle 15" x="13.2645" y="62.8498" width="9.7699" height="78.1592" rx="4.88495" transform="rotate(-60 13.2645 62.8498)" fill="url(#paint2_linear_0_24)"/>
<rect id="Rectangle 16" y="122.124" width="9.7699" height="78.1592" rx="4.88495" transform="rotate(-90 0 122.124)" fill="url(#paint3_linear_0_24)"/>
<path id="Rectangle 17" d="M22.38 177.646C20.0436 178.995 17.056 178.195 15.7071 175.858C14.3581 173.522 15.1586 170.534 17.4951 169.185L76.722 134.991C79.0584 133.642 82.046 134.442 83.3949 136.779C84.7439 139.115 83.9433 142.103 81.6069 143.452L22.38 177.646Z" fill="url(#paint4_linear_0_24)"/>
<path id="Rectangle 18" d="M65.2924 216.983C63.9434 219.319 60.9558 220.12 58.6194 218.771C56.283 217.422 55.4824 214.434 56.8314 212.098L91.026 152.871C92.375 150.534 95.3626 149.734 97.699 151.083C100.035 152.432 100.836 155.419 99.487 157.756L65.2924 216.983Z" fill="url(#paint5_linear_0_24)"/>
<path id="Rectangle 24" d="M169.185 17.4951C170.534 15.1586 173.522 14.3581 175.858 15.707C178.195 17.056 178.995 20.0436 177.646 22.38L143.452 81.6069C142.103 83.9433 139.115 84.7438 136.779 83.3949C134.442 82.046 133.642 79.0584 134.991 76.7219L169.185 17.4951Z" fill="url(#paint6_linear_0_24)"/>
<g id="radiance">
<path d="M130.67 146.133C130.67 148.534 129.294 149.734 126.543 149.734C123.692 149.734 122.266 148.534 122.266 146.133V115.069C122.266 110.967 123.492 108.116 125.943 106.515C128.394 104.915 131.22 104.114 134.421 104.114H142.975C144.826 104.114 145.751 105.29 145.751 107.641C145.851 109.992 144.926 111.167 142.975 111.167H135.022C133.221 111.167 132.045 111.517 131.495 112.218C130.945 112.918 130.67 113.894 130.67 115.144V146.133Z" fill="url(#paint7_linear_0_24)"/>
<path d="M163.426 149.284C161.875 149.284 160.399 149.084 158.999 148.684C157.598 148.234 156.247 147.608 154.947 146.808V146.883C152.496 145.332 151.27 142.481 151.27 138.329V134.653C151.27 132.602 151.62 130.826 152.321 129.325C153.071 127.775 154.097 126.549 155.397 125.649H155.322C156.573 124.798 157.898 124.173 159.299 123.773C160.699 123.323 162.05 123.098 163.351 123.098H179.933V116.119C179.933 114.869 179.533 113.743 178.732 112.743C177.982 111.693 176.681 111.167 174.831 111.167H166.052C164.151 111.167 162.825 111.643 162.075 112.593C161.375 113.493 161.025 114.569 161.025 115.819V116.42C161.025 119.021 159.624 120.321 156.823 120.321C154.022 120.321 152.621 119.021 152.621 116.42V115.744C152.621 113.693 152.971 111.968 153.671 110.567C154.422 109.166 155.422 107.991 156.673 107.041H156.598C157.898 106.19 159.249 105.49 160.649 104.94C162.1 104.389 163.476 104.114 164.776 104.114H176.181C177.432 104.114 178.757 104.389 180.158 104.94C181.609 105.49 182.959 106.19 184.21 107.041H184.135C185.435 107.991 186.436 109.241 187.136 110.792C187.836 112.293 188.186 114.044 188.186 116.044V146.133C188.186 148.534 186.811 149.734 184.06 149.734C183.509 149.734 182.984 149.709 182.484 149.659C182.034 149.609 181.609 149.484 181.208 149.284C180.858 149.034 180.558 148.709 180.308 148.309C180.108 147.858 180.008 147.283 180.008 146.583L179.933 130.151H164.776C163.676 130.151 162.825 130.276 162.225 130.526C161.625 130.776 161.15 131.176 160.799 131.726C160.399 132.577 160.099 133.252 159.899 133.752C159.749 134.202 159.674 134.728 159.674 135.328V138.254C159.674 139.555 160.049 140.555 160.799 141.255C161.6 141.906 162.95 142.231 164.851 142.231H173.255C175.106 142.231 176.031 143.406 176.031 145.757C176.031 146.758 175.806 147.608 175.356 148.309C174.906 148.959 174.205 149.284 173.255 149.284H163.426Z" fill="url(#paint8_linear_0_24)"/>
<path d="M225.729 111.167H211.248C209.197 111.167 207.846 111.768 207.196 112.968C206.496 114.019 206.146 115.244 206.146 116.645V138.254C206.146 139.555 206.546 140.555 207.346 141.255C208.147 141.906 209.472 142.231 211.323 142.231H219.051C220.852 142.231 221.753 143.406 221.753 145.757C221.753 146.758 221.527 147.608 221.077 148.309C220.677 148.959 220.002 149.284 219.051 149.284H209.972C206.821 149.284 204.02 148.484 201.569 146.883C199.118 145.382 197.892 142.531 197.892 138.329V115.969C197.892 113.919 198.217 112.143 198.868 110.642C199.518 109.141 200.543 107.916 201.944 106.965C204.595 105.065 207.246 104.114 209.897 104.114H225.729V92.8593C225.729 90.4583 227.105 89.2577 229.856 89.2577C232.607 89.2577 233.983 90.4583 233.983 92.8593V146.133C233.983 148.534 232.607 149.734 229.856 149.734C228.806 149.734 227.855 149.559 227.005 149.209C226.154 148.809 225.729 147.958 225.729 146.658V111.167Z" fill="url(#paint9_linear_0_24)"/>
<path d="M252.387 146.133C252.387 148.534 251.011 149.734 248.26 149.734C245.459 149.734 244.058 148.534 244.058 146.133V107.416C244.058 105.015 245.459 103.814 248.26 103.814C251.011 103.814 252.387 105.015 252.387 107.416V146.133ZM253.963 94.36C253.963 95.9607 253.412 97.3113 252.312 98.4117C251.212 99.5122 249.861 100.062 248.26 100.062C246.66 100.062 245.284 99.5122 244.133 98.4117C243.033 97.3113 242.483 95.9607 242.483 94.36C242.483 92.7092 243.033 91.3336 244.133 90.2332C245.284 89.1327 246.66 88.5824 248.26 88.5824C249.861 88.5824 251.212 89.1327 252.312 90.2332C253.412 91.3336 253.963 92.7092 253.963 94.36Z" fill="url(#paint10_linear_0_24)"/>
<path d="M274.143 149.284C272.592 149.284 271.117 149.084 269.716 148.684C268.315 148.234 266.965 147.608 265.664 146.808V146.883C263.213 145.332 261.988 142.481 261.988 138.329V134.653C261.988 132.602 262.338 130.826 263.038 129.325C263.788 127.775 264.814 126.549 266.115 125.649H266.039C267.29 124.798 268.616 124.173 270.016 123.773C271.417 123.323 272.767 123.098 274.068 123.098H290.65V116.119C290.65 114.869 290.25 113.743 289.45 112.743C288.699 111.693 287.399 111.167 285.548 111.167H276.769C274.868 111.167 273.543 111.643 272.792 112.593C272.092 113.493 271.742 114.569 271.742 115.819V116.42C271.742 119.021 270.341 120.321 267.54 120.321C264.739 120.321 263.338 119.021 263.338 116.42V115.744C263.338 113.693 263.688 111.968 264.389 110.567C265.139 109.166 266.14 107.991 267.39 107.041H267.315C268.616 106.19 269.966 105.49 271.367 104.94C272.817 104.389 274.193 104.114 275.494 104.114H286.899C288.149 104.114 289.475 104.389 290.875 104.94C292.326 105.49 293.677 106.19 294.927 107.041H294.852C296.153 107.991 297.153 109.241 297.853 110.792C298.554 112.293 298.904 114.044 298.904 116.044V146.133C298.904 148.534 297.528 149.734 294.777 149.734C294.227 149.734 293.702 149.709 293.201 149.659C292.751 149.609 292.326 149.484 291.926 149.284C291.576 149.034 291.276 148.709 291.025 148.309C290.825 147.858 290.725 147.283 290.725 146.583L290.65 130.151H275.494C274.393 130.151 273.543 130.276 272.943 130.526C272.342 130.776 271.867 131.176 271.517 131.726C271.117 132.577 270.817 133.252 270.616 133.752C270.466 134.202 270.391 134.728 270.391 135.328V138.254C270.391 139.555 270.767 140.555 271.517 141.255C272.317 141.906 273.668 142.231 275.569 142.231H283.972C285.823 142.231 286.749 143.406 286.749 145.757C286.749 146.758 286.523 147.608 286.073 148.309C285.623 148.959 284.923 149.284 283.972 149.284H274.143Z" fill="url(#paint11_linear_0_24)"/>
<path d="M316.863 146.133C316.863 148.534 315.487 149.734 312.736 149.734C309.985 149.734 308.609 148.534 308.609 146.133V115.969C308.609 113.919 308.935 112.143 309.585 110.642C310.235 109.141 311.261 107.916 312.661 106.965C315.312 105.065 317.964 104.114 320.615 104.114H332.695C335.246 104.114 337.897 105.065 340.649 106.965C343.35 108.866 344.7 111.868 344.7 115.969V146.133C344.7 148.534 343.325 149.734 340.573 149.734C337.822 149.734 336.447 148.534 336.447 146.133V116.645C336.447 115.344 336.046 114.094 335.246 112.893L335.321 112.968C334.671 111.768 333.345 111.167 331.344 111.167H321.965C319.914 111.167 318.564 111.768 317.914 112.968C317.213 114.019 316.863 115.244 316.863 116.645V146.133Z" fill="url(#paint12_linear_0_24)"/>
<path d="M390.497 137.354C390.497 141.456 389.146 144.482 386.445 146.433C383.794 148.334 381.143 149.284 378.491 149.284H365.886C363.235 149.284 360.659 148.334 358.158 146.433C356.957 145.432 356.032 144.182 355.381 142.681C354.731 141.13 354.406 139.355 354.406 137.354V115.969C354.406 111.918 355.656 108.916 358.158 106.965C359.408 106.065 360.684 105.365 361.984 104.865C363.335 104.314 364.635 104.039 365.886 104.039H378.491C379.692 104.039 381.018 104.289 382.468 104.79C383.919 105.24 385.269 105.865 386.52 106.665C387.72 107.516 388.671 108.691 389.371 110.192C390.122 111.693 390.497 113.468 390.497 115.519V119.271C390.497 121.672 389.121 122.872 386.37 122.872C383.619 122.872 382.243 121.672 382.243 119.271V116.044C382.243 114.794 381.843 113.668 381.043 112.668C380.292 111.618 378.992 111.092 377.141 111.092H367.762C365.911 111.092 364.585 111.618 363.785 112.668C363.035 113.668 362.66 114.794 362.66 116.044V137.279C362.66 138.479 363.035 139.605 363.785 140.655C364.585 141.706 365.911 142.231 367.762 142.231H377.141C378.992 142.231 380.292 141.706 381.043 140.655C381.843 139.605 382.243 138.479 382.243 137.279V133.827C382.243 131.476 383.619 130.301 386.37 130.301C389.121 130.301 390.497 131.476 390.497 133.827V137.354Z" fill="url(#paint13_linear_0_24)"/>
<path d="M408.163 137.279C408.163 138.479 408.538 139.605 409.288 140.655C410.089 141.706 411.414 142.231 413.265 142.231H422.644C424.495 142.231 425.796 141.781 426.546 140.88C427.346 139.93 427.746 138.854 427.746 137.654V136.829C427.746 134.478 429.122 133.302 431.873 133.302C434.624 133.302 436 134.478 436 136.829V137.729C436 139.83 435.65 141.556 434.95 142.906C434.299 144.257 433.299 145.432 431.948 146.433C429.297 148.334 426.646 149.284 423.995 149.284H411.389C408.738 149.284 406.162 148.334 403.661 146.433C402.46 145.432 401.535 144.182 400.885 142.681C400.234 141.13 399.909 139.355 399.909 137.354V115.969C399.909 111.918 401.16 108.916 403.661 106.965C404.911 106.065 406.187 105.365 407.488 104.865C408.838 104.314 410.139 104.039 411.389 104.039H423.995C425.195 104.039 426.521 104.289 427.971 104.79C429.422 105.24 430.773 105.865 432.023 106.665C433.224 107.516 434.174 108.691 434.875 110.192C435.625 111.693 436 113.468 436 115.519V125.649C436 126.799 435.65 127.825 434.95 128.725C434.299 129.625 433.074 130.076 431.273 130.076H415.066C413.265 130.076 412.315 128.9 412.215 126.549C412.215 124.198 413.165 123.023 415.066 123.023H427.821L427.746 116.044C427.746 114.794 427.346 113.668 426.546 112.668C425.796 111.618 424.495 111.092 422.644 111.092H413.265C411.414 111.092 410.089 111.618 409.288 112.668C408.538 113.668 408.163 114.794 408.163 116.044V137.279Z" fill="url(#paint14_linear_0_24)"/>
</g>
</g>
<defs>
<linearGradient id="paint0_linear_0_24" x1="117.434" y1="2.29329e-05" x2="117.434" y2="78.1592" gradientUnits="userSpaceOnUse">
<stop stop-color="#FF7979"/>
<stop offset="1" stop-color="#CE53FF"/>
</linearGradient>
<linearGradient id="paint1_linear_0_24" x1="59.2739" y1="18.1495" x2="59.2739" y2="96.3087" gradientUnits="userSpaceOnUse">
<stop stop-color="#FF7979"/>
<stop offset="1" stop-color="#CE53FF"/>
</linearGradient>
<linearGradient id="paint2_linear_0_24" x1="18.1495" y1="62.8498" x2="18.1495" y2="141.009" gradientUnits="userSpaceOnUse">
<stop stop-color="#FF7979"/>
<stop offset="1" stop-color="#CE53FF"/>
</linearGradient>
<linearGradient id="paint3_linear_0_24" x1="4.88495" y1="122.124" x2="4.88495" y2="200.283" gradientUnits="userSpaceOnUse">
<stop stop-color="#FF7979"/>
<stop offset="1" stop-color="#CE53FF"/>
</linearGradient>
<linearGradient id="paint4_linear_0_24" x1="15.7071" y1="175.858" x2="83.3949" y2="136.779" gradientUnits="userSpaceOnUse">
<stop stop-color="#FF7979"/>
<stop offset="1" stop-color="#CE53FF"/>
</linearGradient>
<linearGradient id="paint5_linear_0_24" x1="58.6194" y1="218.771" x2="97.699" y2="151.083" gradientUnits="userSpaceOnUse">
<stop stop-color="#FF7979"/>
<stop offset="1" stop-color="#CE53FF"/>
</linearGradient>
<linearGradient id="paint6_linear_0_24" x1="175.858" y1="15.707" x2="136.779" y2="83.3949" gradientUnits="userSpaceOnUse">
<stop stop-color="#FF7979"/>
<stop offset="1" stop-color="#CE53FF"/>
</linearGradient>
<linearGradient id="paint7_linear_0_24" x1="117.239" y1="122.319" x2="440.427" y2="122.319" gradientUnits="userSpaceOnUse">
<stop stop-color="#CE53FF"/>
<stop offset="1" stop-color="#7C3299"/>
</linearGradient>
<linearGradient id="paint8_linear_0_24" x1="117.239" y1="122.319" x2="440.427" y2="122.319" gradientUnits="userSpaceOnUse">
<stop stop-color="#CE53FF"/>
<stop offset="1" stop-color="#7C3299"/>
</linearGradient>
<linearGradient id="paint9_linear_0_24" x1="117.239" y1="122.319" x2="440.427" y2="122.319" gradientUnits="userSpaceOnUse">
<stop stop-color="#CE53FF"/>
<stop offset="1" stop-color="#7C3299"/>
</linearGradient>
<linearGradient id="paint10_linear_0_24" x1="117.239" y1="122.319" x2="440.427" y2="122.319" gradientUnits="userSpaceOnUse">
<stop stop-color="#CE53FF"/>
<stop offset="1" stop-color="#7C3299"/>
</linearGradient>
<linearGradient id="paint11_linear_0_24" x1="117.239" y1="122.319" x2="440.427" y2="122.319" gradientUnits="userSpaceOnUse">
<stop stop-color="#CE53FF"/>
<stop offset="1" stop-color="#7C3299"/>
</linearGradient>
<linearGradient id="paint12_linear_0_24" x1="117.239" y1="122.319" x2="440.427" y2="122.319" gradientUnits="userSpaceOnUse">
<stop stop-color="#CE53FF"/>
<stop offset="1" stop-color="#7C3299"/>
</linearGradient>
<linearGradient id="paint13_linear_0_24" x1="117.239" y1="122.319" x2="440.427" y2="122.319" gradientUnits="userSpaceOnUse">
<stop stop-color="#CE53FF"/>
<stop offset="1" stop-color="#7C3299"/>
</linearGradient>
<linearGradient id="paint14_linear_0_24" x1="117.239" y1="122.319" x2="440.427" y2="122.319" gradientUnits="userSpaceOnUse">
<stop stop-color="#CE53FF"/>
<stop offset="1" stop-color="#7C3299"/>
</linearGradient>
</defs>
</svg>
